<?xml version="1.0" standalone="no"?><!DOCTYPE svg PUBLIC "-//W3C//DTD SVG 1.1//EN" "http://www.w3.org/Graphics/SVG/1.1/DTD/svg11.dtd"><svg t="1583469617042" class="icon" viewBox="0 0 1024 1024" version="1.1" xmlns="http://www.w3.org/2000/svg" p-id="1705" xmlns:xlink="http://www.w3.org/1999/xlink" width="50" height="50"><defs><style type="text/css"></style></defs><path d="M256 160h-48c-35.2 0-64 28.8-64 64v576c0 35.2 28.8 64 64 64h608c35.2 0 64-28.8 64-64V224c0-35.2-28.8-64-64-64h-48v288c0 35.2-28.8 64-64 64H320c-35.2 0-64-28.8-64-64V160z m-48-64h608c70.4 0 128 57.6 128 128v576c0 70.4-57.6 128-128 128H208c-70.4 0-128-57.6-128-128V224c0-70.4 57.6-128 128-128z m112 352h384V160H320v288z m288-224c17.6 0 32 14.4 32 32v96c0 17.6-14.4 32-32 32s-32-14.4-32-32v-96c0-17.6 14.4-32 32-32z" fill="#ffffff" p-id="1706"></path></svg>