<?xml version="1.0" standalone="no"?><!DOCTYPE svg PUBLIC "-//W3C//DTD SVG 1.1//EN" "http://www.w3.org/Graphics/SVG/1.1/DTD/svg11.dtd"><svg t="1583469647290" class="icon" viewBox="0 0 1024 1024" version="1.1" xmlns="http://www.w3.org/2000/svg" p-id="1891" xmlns:xlink="http://www.w3.org/1999/xlink" width="50" height="50"><defs><style type="text/css"></style></defs><path d="M304 672c88 0 160-72 160-160s-72-160-160-160S144 424 144 512s72 160 160 160z m164.8-9.6C428.8 707.2 369.6 736 304 736c-123.2 0-224-100.8-224-224s100.8-224 224-224c76.8 0 144 38.4 184 97.6l174.4-100.8c-3.2-14.4-6.4-28.8-6.4-44.8 0-80 64-144 144-144s144 64 144 144-64 144-144 144c-41.6 0-78.4-17.6-104-44.8l-179.2 102.4c8 22.4 11.2 46.4 11.2 70.4 0 35.2-8 68.8-22.4 97.6l124.8 75.2c25.6-27.2 64-44.8 105.6-44.8 80 0 144 64 144 144s-64 144-144 144-144-64-144-144c0-14.4 1.6-30.4 6.4-43.2l-129.6-78.4zM800 320c44.8 0 80-35.2 80-80s-35.2-80-80-80-80 35.2-80 80 35.2 80 80 80z m-64 544c44.8 0 80-35.2 80-80s-35.2-80-80-80-80 35.2-80 80 35.2 80 80 80z" fill="#ffffff" p-id="1892"></path></svg>