<?xml version="1.0" standalone="no"?><!DOCTYPE svg PUBLIC "-//W3C//DTD SVG 1.1//EN" "http://www.w3.org/Graphics/SVG/1.1/DTD/svg11.dtd"><svg t="1583480578029" class="icon" viewBox="0 0 1024 1024" version="1.1" xmlns="http://www.w3.org/2000/svg" p-id="11959" xmlns:xlink="http://www.w3.org/1999/xlink" width="50" height="50"><defs><style type="text/css"></style></defs><path d="M896 768h-96V480c0-129.6-86.4-238.4-203.2-275.2 6.4-12.8 11.2-28.8 11.2-44.8 0-52.8-43.2-96-96-96s-96 43.2-96 96c0 16 4.8 32 11.2 44.8C310.4 241.6 224 350.4 224 480v288H128c-17.6 0-32 14.4-32 32s14.4 32 32 32h227.2c14.4 73.6 80 128 156.8 128 76.8 0 142.4-54.4 156.8-128H896c17.6 0 32-14.4 32-32s-14.4-32-32-32zM480 160c0-17.6 14.4-32 32-32s32 14.4 32 32-14.4 32-32 32-32-14.4-32-32z m32 736c-41.6 0-76.8-27.2-91.2-64h180.8c-12.8 36.8-48 64-89.6 64z m160-128H288V480c0-123.2 100.8-224 224-224s224 100.8 224 224v288h-64z" fill="#576b95" p-id="11960"></path></svg>